<svg width="200" height="43" viewBox="0 0 200 43" fill="none" xmlns="http://www.w3.org/2000/svg">
<path d="M31.3775 34.8972C29.8198 36.574 28.2621 38.2509 26.5793 39.7801C27.157 37.0131 27.8596 34.3937 28.6267 31.6422C29.0558 30.1614 29.4204 28.8127 29.8171 27.3932C29.8492 27.3225 29.8851 27.1713 29.9608 27.1728C30.0365 27.1743 30.1797 27.1249 30.2568 27.196C30.4419 27.4439 30.55 27.6208 30.6342 27.9791C30.866 30.4062 31.1218 32.6517 31.3775 34.8972Z" fill="#0F273B"/>
<path d="M30.9386 6.91577C32.1565 6.91577 33.3743 6.91577 35.1248 6.91577C34.05 7.87642 33.3825 8.47301 32.5301 9.23497C33.6478 9.28405 34.5641 9.32429 35.7014 9.37423C35.3501 9.85735 35.0995 10.2021 34.7321 10.7364C34.3148 11.0193 34.0142 11.1125 33.5878 11.1251C31.1797 11.0082 28.8975 10.9718 26.5414 10.9117C26.4676 10.8879 26.325 10.8267 26.3277 10.7446C26.3303 10.6625 26.3364 10.4983 26.4155 10.3957C27.0654 9.70142 27.5713 9.02196 28.2232 8.54021C29.0675 7.91625 30.0281 7.44995 30.9386 6.91577Z" fill="#21A9DF"/>
<path d="M28.5622 31.7743C27.8596 34.3937 27.1569 37.0131 26.4461 39.7851C26.1202 39.9791 25.6466 40.1758 25.5095 40.0378C24.3151 38.8354 23.1809 37.573 22.1509 36.1583C23.1552 35.372 24.0273 34.7406 24.9222 34.1434C26.1263 33.3398 27.348 32.5627 28.5622 31.7743Z" fill="#2280A5"/>
<path d="M30.9418 6.75733C30.0281 7.44995 29.0675 7.91625 28.2232 8.54021C27.5713 9.02196 27.0654 9.70142 26.2864 10.3954C25.8342 10.4292 25.5901 10.3605 25.2682 10.1922C24.4921 9.43282 23.7939 8.77298 23.1516 7.99155C24.0925 6.92263 24.9775 5.97529 25.8624 5.02795C27.0682 5.15932 28.2981 5.18878 29.469 5.46685C30.0195 5.59758 30.4566 6.20661 30.9418 6.75733Z" fill="#B5F3FB"/>
<path d="M30.658 27.7976C30.5499 27.6208 30.4418 27.444 30.2645 27.1042C30.1952 26.9413 30.2222 26.7591 30.3058 26.748C30.3894 26.7368 30.5577 26.7256 30.7359 26.7431C32.2196 26.7538 33.525 26.7469 34.9385 26.8115C35.7979 27.7597 36.5492 28.6363 37.3005 29.5129C36.5668 30.2441 35.833 30.9752 34.8536 31.7525C33.2913 30.4651 31.9746 29.1314 30.658 27.7976Z" fill="#2684B6"/>
<path d="M28.6267 31.6422C27.348 32.5627 26.1263 33.3399 24.9222 34.1434C24.0273 34.7406 23.1552 35.372 22.1353 36.0195C21.8815 36.0251 21.7895 35.9631 21.6937 35.6883C21.6656 35.4461 21.6656 35.3807 21.785 35.2611C22.6093 34.4435 23.3142 33.6801 24.1324 32.8578C26.0922 31.0206 27.9385 29.2423 29.7849 27.464C29.4203 28.8127 29.0558 30.1614 28.6267 31.6422Z" fill="#1F789C"/>
<path d="M10.4278 22.5632C10.3073 21.0942 10.1867 19.6252 10.2212 17.9653C11.4162 17.1323 12.4563 16.4903 13.5124 16.0264C13.5579 17.3933 13.5875 18.582 13.508 19.8009C12.7938 20.3219 12.1678 20.7896 11.5905 21.3113C11.1696 21.6917 10.813 22.1433 10.4278 22.5632Z" fill="#3F596D"/>
<path d="M30.6342 27.9791C31.9747 29.1313 33.2913 30.465 34.7441 31.8206C33.7865 32.8162 32.6928 33.79 31.4883 34.8305C31.1218 32.6517 30.866 30.4062 30.6342 27.9791Z" fill="#124062"/>
<path d="M17.7747 31.4389C17.5848 29.9819 17.3949 28.5249 17.2974 26.939C18.2448 26.7872 19.0998 26.7644 19.9433 26.7648C19.9317 26.788 19.9765 26.8139 20.1404 26.8493C21.1426 26.9511 21.9809 27.0175 22.7384 27.1442C22.5666 27.3033 22.4756 27.4021 22.2659 27.5449C21.8815 27.9764 21.6157 28.3638 21.3864 28.7233C21.4228 28.6953 21.4921 28.7556 21.3575 28.6884C20.0734 29.5604 18.924 30.4997 17.7747 31.4389Z" fill="#38B0DC"/>
<path d="M19.0069 24.0805C17.3853 23.3227 15.7636 22.5649 14.0433 21.6185C13.9548 21.2692 13.9649 21.1085 14.0882 20.914C14.5012 20.6348 14.8011 20.3895 15.2325 20.1888C16.1742 20.4633 16.9844 20.6934 17.9067 20.9861C18.8352 21.6589 19.6516 22.2691 20.5328 22.9994C20.6501 23.1937 20.7027 23.2679 20.6882 23.4254C20.5474 23.6306 20.4737 23.7525 20.2625 23.9056C19.7523 23.9848 19.3796 24.0326 19.0069 24.0805Z" fill="#101A27"/>
<path d="M25.9196 4.90827C24.9775 5.97527 24.0925 6.92261 23.0805 7.99061C22.9535 8.11126 22.8109 8.10844 22.7468 8.0005C22.0793 7.03067 21.4759 6.16878 20.8502 5.24776C20.828 5.18862 20.8429 5.06318 20.8429 5.06318C22.3465 4.66957 23.8446 4.25002 25.3632 3.9264C25.5003 3.89717 25.7691 4.48653 25.9196 4.90827Z" fill="#2AB0E4"/>
<path d="M20.6774 5.05509C20.8429 5.06319 20.828 5.18864 20.7373 5.31949C19.1922 6.87134 17.7379 8.29233 16.1953 9.59521C15.8773 8.64325 15.6477 7.80939 15.4181 6.97554C16.6151 5.00751 18.5325 4.94503 20.6774 5.05509Z" fill="#7EE9F9"/>
<path d="M21.6657 35.3153C21.6656 35.3807 21.6656 35.4461 21.6619 35.6097C20.4092 34.6171 19.1601 33.5265 18.0172 32.2872C19.2071 31.496 20.2908 30.8535 21.4409 30.3539C21.5601 32.1029 21.6129 33.7091 21.6657 35.3153Z" fill="#317FA7"/>
<path d="M36.0392 16.6763C37.0497 17.7913 38.0601 18.9063 39.3231 20.3C38.3049 20.3 37.6281 20.3 36.4896 20.3C37.2705 21.1428 37.7649 21.6764 38.1937 22.3785C37.4433 22.6482 36.7586 22.7495 36.0027 22.7493C35.68 22.3294 35.4286 22.011 35.2263 21.5556C35.3922 19.832 35.5089 18.2452 35.729 16.6624C35.9014 16.6695 35.9703 16.6729 36.0392 16.6763Z" fill="#0E3D60"/>
<path d="M13.4965 15.8482C12.4564 16.4903 11.4163 17.1323 10.2439 17.7877C10.8664 16.223 11.6213 14.645 12.5275 12.9374C12.9181 12.7784 13.1574 12.7492 13.4731 12.8386C13.8248 13.5431 14.0999 14.1289 14.3159 14.819C14.0033 15.2315 13.7499 15.5399 13.4965 15.8482Z" fill="#678093"/>
<path d="M36.4116 13.6368C36.8898 14.2916 37.3681 14.9464 37.7873 15.7998C37.021 16.0897 36.3137 16.1809 35.5311 16.1942C35.2441 15.927 35.0324 15.7379 34.7309 15.4581C33.9473 14.7474 33.2535 14.1272 32.666 13.4019C33.9854 13.4101 35.1985 13.5235 36.4116 13.6368Z" fill="#0D3755"/>
<path d="M36.5548 13.6073C35.1985 13.5235 33.9854 13.4101 32.5048 13.4125C31.8049 13.5245 31.3725 13.5207 30.9442 13.4331C30.9483 13.3492 30.9437 13.1815 31.0773 13.1536C32.0451 12.4857 32.8793 11.8457 33.7136 11.2057C34.0142 11.1125 34.3148 11.0193 34.7271 10.8862C35.6283 11.44 36.4339 12.0152 37.1769 12.6623C37.237 12.7147 36.8677 13.261 36.5548 13.6073Z" fill="#2696C8"/>
<path d="M36.0739 22.8508C36.7586 22.7495 37.4433 22.6482 38.2655 22.486C38.6317 23.9962 38.8603 25.5674 38.9459 27.3198C38.6265 27.491 38.4501 27.481 38.2393 27.3899C38.1359 27.2053 38.0404 27.1412 37.9287 27.1169C37.9389 27.1175 37.9275 27.1344 37.9462 26.9889C37.3346 25.5125 36.7042 24.1816 36.0739 22.8508Z" fill="#0C4064"/>
<path d="M13.975 20.9478C13.9649 21.1085 13.9548 21.2692 13.9285 21.5494C13.6536 22.0885 13.3947 22.5081 13.011 23.0138C11.4633 22.8645 11.4769 23.9819 11.2336 24.8572C10.9549 24.1869 10.6762 23.5166 10.4126 22.7047C10.813 22.1433 11.1696 21.6917 11.5904 21.3113C12.1677 20.7896 12.7938 20.3219 13.572 19.8527C13.8236 19.9535 13.8915 20.0409 13.9466 20.2719C13.9547 20.5874 13.9649 20.7676 13.975 20.9478Z" fill="#2A3D4E"/>
<path d="M13.3966 12.7199C13.1573 12.7491 12.918 12.7784 12.5584 12.7985C12.1862 10.9846 12.3324 9.3118 14.1322 8.29263C14.424 9.37674 14.5627 10.305 14.6539 11.343C14.3345 11.7464 14.0626 12.04 13.7037 12.3738C13.5027 12.4867 13.4293 12.5886 13.3966 12.7199Z" fill="#49CEEF"/>
<path d="M11.3002 24.9615C11.477 23.9819 11.4634 22.8645 12.9964 23.1434C13.3223 24.48 13.5379 25.7732 13.7535 27.0664C13.5974 27.1566 13.4413 27.2469 13.2852 27.3371C12.6457 26.58 12.0062 25.8229 11.3002 24.9615Z" fill="#121E2C"/>
<path d="M38.2738 27.471C38.4502 27.481 38.6266 27.491 38.9353 27.4957C38.5677 28.1651 38.0678 28.8397 37.4342 29.5136C36.5493 28.6363 35.798 27.7596 34.8864 26.6935C34.6363 26.181 34.5465 25.8582 34.5944 25.5478C35.7973 26.0849 36.8625 26.6096 37.9276 27.1344C37.9276 27.1344 37.939 27.1175 37.9613 27.1993C38.0554 27.3828 38.152 27.4461 38.2738 27.471Z" fill="#15293A"/>
<path d="M18.9531 24.1874C19.3796 24.0326 19.7523 23.9848 20.3063 24.04C20.6355 24.3819 20.7833 24.6206 20.9139 24.9942C20.5899 25.6907 20.2831 26.2523 19.9764 26.8139C19.9764 26.8139 19.9316 26.788 19.7883 26.7505C19.0241 26.3206 18.4031 25.928 17.7821 25.5355C18.1545 25.1218 18.5269 24.7081 18.9531 24.1874Z" fill="#1878A1"/>
<path d="M14.7015 11.2332C14.5628 10.305 14.424 9.37675 14.2744 8.28539C14.5746 7.76485 14.8857 7.40745 15.3074 7.01279C15.6477 7.80939 15.8773 8.64324 16.1828 9.68536C16.2587 9.89363 16.2488 10.0757 16.1354 10.1188C15.5818 10.5189 15.1417 10.8761 14.7015 11.2332Z" fill="#5DE0F8"/>
<path d="M21.3746 30.211C20.2909 30.8535 19.2071 31.496 17.9893 32.1632C17.8395 32.0213 17.8238 31.8546 17.7914 31.5634C18.9241 30.4997 20.0734 29.5604 21.3867 28.8362C21.4919 29.4378 21.4332 29.8244 21.3746 30.211Z" fill="#103E5F"/>
<path d="M17.6846 25.6075C18.4032 25.928 19.0242 26.3205 19.8 26.7274C19.0998 26.7644 18.2448 26.7872 17.2468 26.7904C17.265 26.407 17.4261 26.0433 17.6846 25.6075Z" fill="#135A82"/>
<path d="M35.6064 16.2722C36.3137 16.1809 37.021 16.0897 37.8502 15.9074C38.1913 15.9346 38.4104 16.0529 38.6296 16.1712C38.5662 16.3376 38.5028 16.504 38.4395 16.6703C37.7404 16.6703 37.0412 16.6703 36.1907 16.6733C35.9703 16.6729 35.9014 16.6695 35.7164 16.5661C35.6024 16.4015 35.6044 16.3368 35.6064 16.2722Z" fill="#114163"/>
<path d="M29.817 27.3932C27.9385 29.2423 26.0921 31.0206 24.1217 32.6786C24.001 30.4969 24.0045 28.4356 24.0548 26.2555C24.7056 25.6736 25.3095 25.2106 25.993 24.7061C26.1681 24.5911 26.254 24.5076 26.4248 24.431C26.5192 24.4477 26.7035 24.5004 26.784 24.5962C27.8713 25.5185 28.8782 26.3449 29.8851 27.1713C29.8851 27.1713 29.8492 27.3225 29.817 27.3932Z" fill="#57CDE9"/>
<path d="M29.9608 27.1728C28.8782 26.3449 27.8713 25.5185 26.7871 24.5634C26.7098 24.4347 26.7121 24.3688 26.8717 24.3829C28.0721 24.3068 29.113 24.2166 30.1622 24.2896C30.1878 25.2215 30.205 25.9903 30.2222 26.7591C30.2222 26.7591 30.1952 26.9413 30.1875 27.0331C30.1797 27.1249 30.0365 27.1743 29.9608 27.1728Z" fill="#45C3E4"/>
<path d="M33.5877 11.1251C32.8793 11.8456 32.045 12.4856 31.0024 13.205C30.6954 13.3605 30.6226 13.4564 30.5771 13.5624C30.5787 13.5531 30.5942 13.5642 30.5159 13.5382C30.4377 13.5122 30.2736 13.4958 30.1183 13.4866C29.5496 13.4569 29.1363 13.4365 28.6802 13.2968C27.9632 12.4301 27.2892 11.6828 26.6151 10.9355C28.8974 10.9718 31.1796 11.0081 33.5877 11.1251Z" fill="#1A92C9"/>
<path d="M26.5414 10.9117C27.2893 11.6828 27.9633 12.4302 28.5048 13.3266C27.7831 13.5176 27.1941 13.5596 26.4669 13.5921C25.562 13.0695 24.7952 12.5564 24.1388 11.9537C24.6949 11.5434 25.1405 11.2228 25.7094 10.8917C25.9968 10.8632 26.1609 10.8449 26.325 10.8267C26.325 10.8267 26.4676 10.8879 26.5414 10.9117Z" fill="#126495"/>
<path d="M26.3277 10.7446C26.1609 10.8449 25.9969 10.8631 25.6324 10.8251C25.3376 10.6721 25.2431 10.5753 25.1982 10.4321C25.2478 10.3857 25.3461 10.2918 25.3461 10.2918C25.5901 10.3605 25.8342 10.4291 26.2073 10.4981C26.3364 10.4983 26.3303 10.6625 26.3277 10.7446Z" fill="#2FAADA"/>
<path d="M22.8109 8.10846C22.8109 8.10846 22.9534 8.11128 23.0246 8.1122C23.7939 8.77297 24.4921 9.43281 25.2682 10.1922C25.346 10.2918 25.2478 10.3857 25.0212 10.4262C23.3644 10.4578 21.9341 10.4489 20.5472 10.3213C21.3307 9.50454 22.0708 8.8065 22.8109 8.10846Z" fill="#2FAADA"/>
<path d="M30.3058 26.7479C30.205 25.9903 30.1878 25.2215 30.2495 24.1783C30.4265 23.5497 30.5246 23.1956 30.7233 22.8079C31.5225 23.1934 32.2211 23.6125 32.9023 24.1428C32.859 24.4016 32.8331 24.5492 32.7 24.766C31.9145 25.4653 31.2361 26.0954 30.5577 26.7256C30.5577 26.7256 30.3894 26.7368 30.3058 26.7479Z" fill="#37A9D0"/>
<path d="M30.736 26.7431C31.2361 26.0954 31.9145 25.4653 32.8123 24.7962C33.2464 24.8388 33.4611 24.9204 33.7323 25.1217C34.0148 25.3468 34.2408 25.4524 34.4566 25.5557C34.4464 25.5534 34.4566 25.5353 34.4566 25.5353C34.5464 25.8582 34.6362 26.1811 34.7783 26.622C33.5251 26.7469 32.2197 26.7538 30.736 26.7431Z" fill="#134C77"/>
<path d="M24.0079 26.3743C24.0044 28.4356 24.001 30.4969 24.0083 32.7374C23.3141 33.6801 22.6092 34.4435 21.785 35.2611C21.6128 33.7091 21.56 32.1029 21.4409 30.3539C21.4331 29.8244 21.4918 29.4379 21.5212 28.9035C21.492 28.7556 21.4227 28.6953 21.5127 28.7907C21.8632 28.4244 22.1238 27.9626 22.3844 27.5009C22.4755 27.4021 22.5666 27.3033 22.86 27.141C23.3775 26.8431 23.6927 26.6087 24.0079 26.3743Z" fill="#C2F3FA"/>
<path d="M13.9488 20.1366C13.8916 20.0409 13.8237 19.9535 13.6812 19.8225C13.5876 18.582 13.558 17.3933 13.5125 16.0264C13.7499 15.5398 14.0033 15.2315 14.4552 14.8194C15.1215 14.7111 15.5891 14.7067 16.1229 14.8015C16.4194 15.1083 16.6496 15.3158 16.9403 15.6348C17.4102 16.1619 17.8196 16.5774 18.1968 17.1255C17.7096 17.9327 17.2546 18.6073 16.7735 19.3205C17.1204 19.865 17.4576 20.3942 17.7947 20.9234C16.9845 20.6934 16.1743 20.4633 15.0883 20.1885C14.5247 20.1414 14.2367 20.139 13.9488 20.1366Z" fill="#172232"/>
<path d="M24.0548 26.2555C23.6927 26.6087 23.3775 26.8431 22.9407 27.0807C21.9808 27.0175 21.1426 26.9511 20.1404 26.8494C20.2832 26.2523 20.5899 25.6907 21.0629 24.9858C21.8924 24.688 22.5557 24.5336 23.3806 24.3901C24.0817 24.397 24.6211 24.3931 25.2748 24.4007C25.542 24.4154 25.6948 24.4186 25.8661 24.5029C25.8845 24.5839 25.9134 24.7475 25.9134 24.7475C25.3095 25.2106 24.7057 25.6736 24.0548 26.2555Z" fill="#135A82"/>
<path d="M22.2658 27.5449C22.1239 27.9626 21.8633 28.4243 21.4763 28.8186C21.6157 28.3638 21.8814 27.9764 22.2658 27.5449Z" fill="#103E5F"/>
<path d="M17.9067 20.9861C17.4575 20.3942 17.1203 19.865 16.7734 19.3205C17.2545 18.6073 17.7095 17.9327 18.2967 17.1754C18.612 17.2022 18.7954 17.3116 19.0042 17.543C19.3727 18.1249 19.7156 18.5849 20.0332 19.2057C20.1613 20.5373 20.3147 21.7083 20.4681 22.8792C19.6517 22.2691 18.8352 21.6589 17.9067 20.9861Z" fill="#3F5061"/>
<path d="M20.5328 22.9994C20.3147 21.7083 20.1613 20.5373 20.1629 19.2323C21.175 19.7282 22.0322 20.3581 22.8537 21.0857C22.6988 21.3513 22.5797 21.5193 22.3759 21.749C22.1901 21.9911 22.089 22.1716 21.8912 22.4133C21.4482 22.7637 21.1018 23.0529 20.7554 23.3421C20.7028 23.2679 20.6502 23.1937 20.5328 22.9994Z" fill="#9CAFB6"/>
<path d="M20.6882 23.4254C21.1018 23.0529 21.4481 22.7637 21.9632 22.53C22.4943 23.1834 22.8566 23.7813 23.2189 24.3792C22.5557 24.5336 21.8924 24.688 21.0802 24.8508C20.7834 24.6206 20.6356 24.3818 20.444 24.0088C20.4738 23.7525 20.5474 23.6306 20.6882 23.4254Z" fill="#2299C9"/>
<path d="M13.9467 20.2719C14.2366 20.139 14.5246 20.1414 14.9568 20.144C14.8012 20.3895 14.5013 20.6348 14.0882 20.914C13.9649 20.7676 13.9547 20.5874 13.9467 20.2719Z" fill="#1C2B3C"/>
<path d="M22.7468 8.00052C22.0708 8.8065 21.3307 9.50454 20.4098 10.2984C19.1406 10.5661 18.0522 10.7381 16.8709 10.8474C16.6016 10.5484 16.4252 10.3121 16.2488 10.0757C16.2488 10.0757 16.2587 9.89365 16.2712 9.80349C17.738 8.29234 19.1922 6.87134 20.7595 5.37863C21.4759 6.1688 22.0793 7.03069 22.7468 8.00052Z" fill="#1AA6DC"/>
<path d="M33.6757 25.002C33.461 24.9204 33.2464 24.8388 32.9194 24.727C32.833 24.5492 32.8589 24.4016 32.9858 24.0486C33.676 23.123 34.2654 22.4027 34.9354 21.6838C35.016 21.6852 35.1771 21.6926 35.1771 21.6926C35.4286 22.011 35.68 22.3294 36.0026 22.7493C36.7042 24.1816 37.3345 25.5125 37.9462 26.9889C36.8624 26.6096 35.7972 26.0849 34.5943 25.5478C34.4565 25.5353 34.4464 25.5534 34.3916 25.4491C34.1164 25.2305 33.8961 25.1163 33.6757 25.002Z" fill="#286F98"/>
<path d="M35.2263 21.5556C35.1772 21.6926 35.016 21.6853 34.9297 21.59C34.8433 21.4947 34.8302 21.3067 34.7965 21.1821C34.0119 20.2362 33.261 19.4148 32.5748 18.4822C33.3666 17.4303 34.0936 16.4895 34.8206 15.5487C35.0323 15.7379 35.2441 15.9271 35.5311 16.1942C35.6044 16.3368 35.6024 16.4015 35.613 16.5624C35.5089 18.2453 35.3922 19.832 35.2263 21.5556Z" fill="#2A8FB8"/>
<path d="M16.0566 14.7022C15.589 14.7067 15.1214 14.7112 14.5143 14.7152C14.0998 14.1289 13.8247 13.5431 13.473 12.8386C13.4293 12.5886 13.5026 12.4867 13.8873 12.3833C15.378 12.221 16.5982 12.0894 17.9343 11.9814C18.1278 12.0196 18.2053 12.0344 18.2626 12.1833C17.5138 13.1124 16.7852 13.9073 16.0566 14.7022Z" fill="#1B5D83"/>
<path d="M34.7308 15.4581C34.0936 16.4895 33.3666 17.4302 32.4884 18.4798C32.3373 18.5885 32.1643 18.5869 32.1103 18.4686C31.1809 17.5213 30.3056 16.6922 29.3719 15.7749C29.1988 15.6038 29.0842 15.5209 28.9627 15.369C28.9558 15.3 28.9347 15.163 29.0508 15.107C29.521 14.681 29.8752 14.311 30.3116 13.9019C30.4947 13.7863 30.5615 13.6867 30.5942 13.5642C30.5942 13.5642 30.5788 13.5531 30.6687 13.5514C30.7587 13.5497 30.9401 13.5168 30.9401 13.5168C31.3725 13.5206 31.8048 13.5244 32.3985 13.5177C33.2535 14.1272 33.9473 14.7474 34.7308 15.4581Z" fill="#3FB6D7"/>
<path d="M30.9441 13.433C30.94 13.5168 30.7586 13.5497 30.6671 13.5608C30.6226 13.4564 30.6954 13.3605 30.8688 13.2329C30.9437 13.1815 30.9482 13.3492 30.9441 13.433Z" fill="#126495"/>
<path d="M38.2394 27.3899C38.152 27.4461 38.0553 27.3828 37.9512 27.1988C38.0405 27.1412 38.136 27.2053 38.2394 27.3899Z" fill="#286F98"/>
<path d="M17.8184 11.9579C16.5983 12.0895 15.3781 12.221 13.9744 12.3431C14.0627 12.04 14.3346 11.7464 14.654 11.343C15.1416 10.8761 15.5818 10.519 16.1354 10.1188C16.4252 10.3121 16.6016 10.5484 16.9374 10.9388C17.3374 11.3811 17.5779 11.6695 17.8184 11.9579Z" fill="#116898"/>
<path d="M26.7067 24.4675C26.7036 24.5004 26.5192 24.4476 26.3986 24.4055C26.2779 24.3634 26.2254 24.3128 26.2497 24.1522C26.2775 23.2184 26.281 22.4452 26.2949 21.5478C26.3147 21.2573 26.3241 21.091 26.4806 20.9536C27.4285 21.0916 28.2293 21.2007 28.961 21.4176C28.1653 22.4732 27.4387 23.421 26.7122 24.3688C26.7122 24.3688 26.7099 24.4347 26.7067 24.4675Z" fill="#309DC9"/>
<path d="M25.993 24.7061C25.9134 24.7475 25.8845 24.5839 25.9613 24.4779C26.1005 24.3523 26.1629 24.3325 26.2254 24.3128C26.2254 24.3128 26.2779 24.3634 26.3042 24.3888C26.254 24.5076 26.1681 24.591 25.993 24.7061Z" fill="#309DC9"/>
<path d="M26.8717 24.3829C27.4387 23.421 28.1652 22.4732 28.9626 21.3207C29.0338 21.0514 29.034 20.9869 29.1183 20.9372C29.2023 20.952 29.3712 20.9762 29.4523 21.0496C29.7333 21.2104 29.9333 21.2978 30.1471 21.5172C30.3148 22.0467 30.4687 22.4441 30.6226 22.8415C30.5246 23.1956 30.4265 23.5497 30.2412 24.0151C29.113 24.2166 28.0721 24.3068 26.8717 24.3829Z" fill="#298FB7"/>
<path d="M30.2294 13.9409C29.8752 14.311 29.5211 14.681 28.9265 15.0774C27.9924 14.6029 27.2987 14.1022 26.605 13.6015C27.194 13.5596 27.7831 13.5176 28.5476 13.4459C29.1364 13.4365 29.5497 13.4569 30.1031 13.5977C30.2386 13.7923 30.234 13.8666 30.2294 13.9409Z" fill="#163E5C"/>
<path d="M30.3117 13.902C30.234 13.8666 30.2386 13.7923 30.2585 13.6069C30.2737 13.4958 30.4378 13.5122 30.516 13.5382C30.5616 13.6867 30.4948 13.7863 30.3117 13.902Z" fill="#126495"/>
<path d="M26.4669 13.5921C27.2987 14.1022 27.9924 14.6029 28.8104 15.1333C28.9347 15.163 28.9558 15.3 28.8379 15.4043C27.8061 16.3076 26.8921 17.1067 25.9414 17.9901C25.8176 18.1697 25.7097 18.2217 25.5754 18.1047C25.558 17.8963 25.5463 17.8133 25.5211 17.6201C25.3959 17.3364 25.2843 17.163 25.1436 16.8712C24.9963 16.4485 24.878 16.1441 24.7735 15.6973C24.8442 15.0864 24.901 14.6179 24.9849 13.9252C23.9139 13.9252 22.9989 13.9252 22.0076 13.8163C21.0203 12.0114 19.9775 13.2901 18.9559 13.4528C18.8208 12.9286 18.7083 12.5279 18.7161 12.0447C19.5159 11.7519 20.2076 11.3382 20.8723 11.3779C21.9337 11.4413 22.9772 11.806 24.0283 12.0433C24.7951 12.5564 25.562 13.0695 26.4669 13.5921Z" fill="#ADBFC5"/>
<path d="M24.1387 11.9537C22.9771 11.806 21.9337 11.4413 20.8722 11.3779C20.2075 11.3382 19.5158 11.7519 18.6389 12.0204C18.4415 12.0785 18.2828 12.0492 18.2828 12.0492C18.2052 12.0344 18.1277 12.0196 17.9343 11.9814C17.5778 11.6695 17.3373 11.3811 17.0303 11.0014C18.0521 10.738 19.1406 10.5661 20.3664 10.4171C21.9341 10.4488 23.3643 10.4578 24.9716 10.4726C25.243 10.5753 25.3375 10.6721 25.509 10.8355C25.1404 11.2227 24.6948 11.5434 24.1387 11.9537Z" fill="#1E99D0"/>
<path d="M30.7233 22.8079C30.4687 22.4441 30.3148 22.0467 30.3296 21.4986C31.9423 21.3341 33.3863 21.3204 34.8302 21.3067C34.8302 21.3067 34.8434 21.4947 34.8491 21.5886C34.2654 22.4028 33.6761 23.1231 33.0032 23.9375C32.2211 23.6125 31.5225 23.1934 30.7233 22.8079Z" fill="#51B8D8"/>
<path d="M33.7323 25.1217C33.8961 25.1163 34.1165 25.2306 34.4018 25.4514C34.2408 25.4524 34.0148 25.3469 33.7323 25.1217Z" fill="#15293A"/>
<path d="M18.9786 13.5764C19.9774 13.2901 21.0203 12.0114 21.9164 13.905C21.5731 14.6831 21.2446 15.2636 20.7875 15.8765C20.098 16.4229 19.5372 16.9369 18.9684 17.4427C18.9605 17.4345 18.9787 17.421 18.9787 17.421C18.7954 17.3116 18.6121 17.2022 18.3288 17.0428C17.8195 16.5774 17.4101 16.1619 17.1016 15.6215C17.8759 15.4604 18.5493 15.4243 19.2496 15.3868C19.144 14.681 19.0613 14.1287 18.9786 13.5764Z" fill="#DCE2DD"/>
<path d="M18.956 13.4528C19.0613 14.1287 19.144 14.6811 19.2497 15.3868C18.5494 15.4243 17.8759 15.4604 17.0411 15.5099C16.6496 15.3158 16.4194 15.1083 16.1229 14.8015C16.7853 13.9073 17.5139 13.1124 18.2627 12.1833C18.2829 12.0492 18.4416 12.0785 18.5187 12.1029C18.7084 12.5279 18.8208 12.9286 18.956 13.4528Z" fill="#B0BBBD"/>
<path d="M26.2496 24.1522C26.1629 24.3326 26.1004 24.3523 25.9428 24.397C25.6948 24.4187 25.5419 24.4154 25.2725 24.2548C25.1532 22.2909 23.5411 22.2869 22.4606 21.6874C22.5797 21.5194 22.6987 21.3513 22.9255 21.0491C23.0332 20.9149 23.192 20.8863 23.3087 20.9706C24.3784 21.2605 25.3314 21.4663 26.2843 21.672C26.2809 22.4452 26.2774 23.2184 26.2496 24.1522Z" fill="#2183B1"/>
<path d="M22.3759 21.749C23.5412 22.2868 25.1533 22.2909 25.1583 24.2433C24.6212 24.3931 24.0817 24.397 23.3806 24.3901C22.8566 23.7813 22.4943 23.1834 22.0599 22.4688C22.089 22.1716 22.1901 21.9911 22.3759 21.749Z" fill="#2090C0"/>
<path d="M23.192 20.8863C23.192 20.8863 23.0332 20.9149 22.9613 20.9515C22.0322 20.3581 21.175 19.7282 20.1881 19.0716C19.7156 18.5849 19.3727 18.1249 19.0042 17.543C18.9786 17.421 18.9604 17.4345 19.137 17.4633C21.0092 17.3433 22.7048 17.1944 24.4347 17.16C24.8243 17.4265 25.1794 17.5785 25.5346 17.7304C25.5463 17.8133 25.558 17.8963 25.5015 18.2096C24.6861 19.2554 23.9391 20.0709 23.192 20.8863Z" fill="#F4F6F4"/>
<path d="M34.7965 21.1821C33.3863 21.3204 31.9423 21.3341 30.3159 21.3665C29.9334 21.2978 29.7334 21.2104 29.5353 20.9854C29.6348 20.7485 29.7323 20.6492 29.9357 20.4814C30.7492 19.8042 31.4568 19.1956 32.1644 18.5869C32.1644 18.5869 32.3374 18.5885 32.4238 18.591C33.2611 19.4148 34.012 20.2361 34.7965 21.1821Z" fill="#7BDBF1"/>
<path d="M29.8298 20.5499C29.7323 20.6492 29.6347 20.7485 29.4542 20.912C29.3712 20.9762 29.2023 20.952 29.0725 20.8161C28.0835 19.8441 27.2242 19.008 26.3266 18.0931C26.2108 17.9043 26.1074 17.8681 25.9781 17.9057C26.8921 17.1066 27.8061 16.3076 28.8448 15.4733C29.0842 15.5209 29.1988 15.6038 29.3697 15.9519C29.5606 17.6614 29.6952 19.1056 29.8298 20.5499Z" fill="#C1F6FC"/>
<path d="M29.9357 20.4814C29.6953 19.1056 29.5607 17.6614 29.4282 16.0402C30.3057 16.6923 31.181 17.5213 32.1103 18.4686C31.4568 19.1956 30.7491 19.8043 29.9357 20.4814Z" fill="#A4F0FC"/>
<path d="M25.9414 17.9901C26.1074 17.8681 26.2108 17.9043 26.3173 18.2644C26.342 19.3179 26.3377 20.1214 26.3335 20.9248C26.3241 21.0911 26.3147 21.2573 26.2948 21.5478C25.3314 21.4662 24.3784 21.2605 23.3087 20.9706C23.9391 20.0709 24.6862 19.2554 25.5072 18.3351C25.7097 18.2217 25.8176 18.1697 25.9414 17.9901Z" fill="#1973A1"/>
<path d="M26.4805 20.9536C26.3377 20.1213 26.342 19.3179 26.3555 18.3432C27.2242 19.008 28.0835 19.8441 28.9885 20.8012C29.034 20.9869 29.0337 21.0514 29.0318 21.2129C28.2292 21.2007 27.4284 21.0916 26.4805 20.9536Z" fill="#2991BF"/>
<path d="M20.9161 15.8442C21.2446 15.2636 21.5731 14.6831 21.9927 14.0139C22.9989 13.9252 23.9139 13.9252 24.9849 13.9252C24.901 14.618 24.8442 15.0864 24.5994 15.7C23.2463 15.8449 22.0812 15.8445 20.9161 15.8442Z" fill="#EAF0EE"/>
<path d="M20.7875 15.8766C22.0812 15.8445 23.2462 15.8449 24.5855 15.8425C24.8779 16.1442 24.9963 16.4485 25.0153 16.8856C24.7441 17.0274 24.5723 17.0365 24.4004 17.0455C22.7048 17.1944 21.0093 17.3433 19.145 17.4715C19.5372 16.9369 20.098 16.4229 20.7875 15.8766Z" fill="#A2AFB6"/>
<path d="M24.4348 17.1601C24.5723 17.0365 24.7441 17.0274 25.0443 17.004C25.2843 17.163 25.3959 17.3364 25.5211 17.6201C25.1795 17.5785 24.8243 17.4265 24.4348 17.1601Z" fill="#465E75"/>
<ellipse cx="21" cy="14" rx="1" ry="1" fill="black"/>
<path d="M46.709 11H50.0039V28.8418L49.6895 32H46.709V11ZM59.6562 24.4668V24.7539C59.6562 25.8477 59.5332 26.8548 59.2871 27.7754C59.0501 28.6868 58.6855 29.4798 58.1934 30.1543C57.7103 30.8288 57.1087 31.3529 56.3887 31.7266C55.6777 32.0911 54.8529 32.2734 53.9141 32.2734C52.9935 32.2734 52.1914 32.1003 51.5078 31.7539C50.8242 31.4076 50.25 30.9154 49.7852 30.2773C49.3294 29.6393 48.9603 28.8783 48.6777 27.9941C48.3952 27.11 48.1947 26.1348 48.0762 25.0684V24.1523C48.1947 23.0768 48.3952 22.1016 48.6777 21.2266C48.9603 20.3424 49.3294 19.5814 49.7852 18.9434C50.25 18.2962 50.8197 17.7995 51.4941 17.4531C52.1777 17.1068 52.9753 16.9336 53.8867 16.9336C54.8346 16.9336 55.6686 17.1159 56.3887 17.4805C57.1178 17.8451 57.724 18.3646 58.207 19.0391C58.6901 19.7044 59.0501 20.4974 59.2871 21.418C59.5332 22.3385 59.6562 23.3548 59.6562 24.4668ZM56.3613 24.7539V24.4668C56.3613 23.8014 56.3066 23.1771 56.1973 22.5938C56.0879 22.0013 55.9056 21.4818 55.6504 21.0352C55.4043 20.5885 55.0671 20.2376 54.6387 19.9824C54.2194 19.7181 53.6953 19.5859 53.0664 19.5859C52.4831 19.5859 51.9818 19.6862 51.5625 19.8867C51.1432 20.0872 50.7923 20.3607 50.5098 20.707C50.2272 21.0534 50.0039 21.4544 49.8398 21.9102C49.6849 22.3659 49.5801 22.8581 49.5254 23.3867V25.8613C49.6074 26.5449 49.7806 27.1738 50.0449 27.748C50.3184 28.3132 50.7012 28.7689 51.1934 29.1152C51.6855 29.4525 52.319 29.6211 53.0938 29.6211C53.7044 29.6211 54.2194 29.498 54.6387 29.252C55.0579 29.0059 55.3906 28.6641 55.6367 28.2266C55.8919 27.7799 56.0742 27.2604 56.1836 26.668C56.3021 26.0755 56.3613 25.4375 56.3613 24.7539ZM65.9727 11V32H62.6641V11H65.9727ZM78.4824 28.5137V17.207H81.791V32H78.6738L78.4824 28.5137ZM78.9473 25.4375L80.0547 25.4102C80.0547 26.4036 79.9453 27.3197 79.7266 28.1582C79.5078 28.9876 79.1706 29.7122 78.7148 30.332C78.2591 30.9427 77.6758 31.4212 76.9648 31.7676C76.2539 32.1048 75.4017 32.2734 74.4082 32.2734C73.6882 32.2734 73.0273 32.1686 72.4258 31.959C71.8242 31.7493 71.3047 31.4258 70.8672 30.9883C70.4388 30.5508 70.1061 29.9811 69.8691 29.2793C69.6322 28.5775 69.5137 27.7389 69.5137 26.7637V17.207H72.8086V26.791C72.8086 27.3288 72.8724 27.7799 73 28.1445C73.1276 28.5 73.3008 28.7871 73.5195 29.0059C73.7383 29.2246 73.9935 29.3796 74.2852 29.4707C74.5768 29.5618 74.8867 29.6074 75.2148 29.6074C76.1536 29.6074 76.8919 29.4251 77.4297 29.0605C77.9766 28.6868 78.3639 28.1855 78.5918 27.5566C78.8288 26.9277 78.9473 26.2214 78.9473 25.4375ZM91.6895 32.2734C90.5957 32.2734 89.6068 32.0957 88.7227 31.7402C87.8477 31.3757 87.1003 30.8698 86.4805 30.2227C85.8698 29.5755 85.4004 28.8145 85.0723 27.9395C84.7441 27.0645 84.5801 26.1211 84.5801 25.1094V24.5625C84.5801 23.4049 84.7487 22.3568 85.0859 21.418C85.4232 20.4792 85.8926 19.6771 86.4941 19.0117C87.0957 18.3372 87.8066 17.8223 88.627 17.4668C89.4473 17.1113 90.3359 16.9336 91.293 16.9336C92.3503 16.9336 93.2754 17.1113 94.0684 17.4668C94.8613 17.8223 95.5176 18.3236 96.0371 18.9707C96.5658 19.6087 96.9577 20.3698 97.2129 21.2539C97.4772 22.138 97.6094 23.1133 97.6094 24.1797V25.5879H86.1797V23.2227H94.3555V22.9629C94.3372 22.3704 94.2188 21.8145 94 21.2949C93.7904 20.7754 93.4668 20.3561 93.0293 20.0371C92.5918 19.7181 92.0085 19.5586 91.2793 19.5586C90.7324 19.5586 90.2448 19.6771 89.8164 19.9141C89.3971 20.1419 89.0462 20.4746 88.7637 20.9121C88.4811 21.3496 88.2624 21.8783 88.1074 22.498C87.9616 23.1087 87.8887 23.7969 87.8887 24.5625V25.1094C87.8887 25.7565 87.9753 26.3581 88.1484 26.9141C88.3307 27.4609 88.5951 27.9395 88.9414 28.3496C89.2878 28.7598 89.707 29.0833 90.1992 29.3203C90.6914 29.5482 91.252 29.6621 91.8809 29.6621C92.6738 29.6621 93.3802 29.5026 94 29.1836C94.6198 28.8646 95.1576 28.4134 95.6133 27.8301L97.3496 29.5117C97.0306 29.9766 96.6159 30.4232 96.1055 30.8516C95.5951 31.2708 94.9707 31.6126 94.2324 31.877C93.5033 32.1413 92.6556 32.2734 91.6895 32.2734ZM110.461 20.0508V37.6875H107.166V17.207H110.201L110.461 20.0508ZM120.1 24.4668V24.7539C120.1 25.8294 119.972 26.8275 119.717 27.748C119.471 28.6595 119.102 29.457 118.609 30.1406C118.126 30.8151 117.529 31.3392 116.818 31.7129C116.107 32.0866 115.287 32.2734 114.357 32.2734C113.437 32.2734 112.63 32.1048 111.938 31.7676C111.254 31.4212 110.675 30.9336 110.201 30.3047C109.727 29.6758 109.344 28.9375 109.053 28.0898C108.77 27.2331 108.57 26.2943 108.451 25.2734V24.166C108.57 23.0814 108.77 22.097 109.053 21.2129C109.344 20.3288 109.727 19.5677 110.201 18.9297C110.675 18.2917 111.254 17.7995 111.938 17.4531C112.621 17.1068 113.419 16.9336 114.33 16.9336C115.26 16.9336 116.085 17.1159 116.805 17.4805C117.525 17.8359 118.131 18.3464 118.623 19.0117C119.115 19.668 119.484 20.4609 119.73 21.3906C119.977 22.3112 120.1 23.3366 120.1 24.4668ZM116.805 24.7539V24.4668C116.805 23.7832 116.741 23.1497 116.613 22.5664C116.486 21.974 116.285 21.4544 116.012 21.0078C115.738 20.5612 115.387 20.2148 114.959 19.9688C114.54 19.7135 114.034 19.5859 113.441 19.5859C112.858 19.5859 112.357 19.6862 111.938 19.8867C111.518 20.0781 111.167 20.347 110.885 20.6934C110.602 21.0397 110.383 21.4453 110.229 21.9102C110.074 22.3659 109.964 22.8626 109.9 23.4004V26.0527C110.01 26.709 110.197 27.3105 110.461 27.8574C110.725 28.4043 111.099 28.8418 111.582 29.1699C112.074 29.4889 112.703 29.6484 113.469 29.6484C114.061 29.6484 114.567 29.5208 114.986 29.2656C115.406 29.0104 115.747 28.6595 116.012 28.2129C116.285 27.7572 116.486 27.2331 116.613 26.6406C116.741 26.0482 116.805 25.4193 116.805 24.7539ZM126.43 11V32H123.121V11H126.43ZM138.379 29.0332V21.9785C138.379 21.4499 138.283 20.9941 138.092 20.6113C137.9 20.2285 137.609 19.9323 137.217 19.7227C136.834 19.513 136.351 19.4082 135.768 19.4082C135.23 19.4082 134.765 19.4993 134.373 19.6816C133.981 19.8639 133.676 20.11 133.457 20.4199C133.238 20.7298 133.129 21.0807 133.129 21.4727H129.848C129.848 20.8893 129.989 20.3242 130.271 19.7773C130.554 19.2305 130.964 18.7428 131.502 18.3145C132.04 17.8861 132.682 17.5488 133.43 17.3027C134.177 17.0566 135.016 16.9336 135.945 16.9336C137.057 16.9336 138.042 17.1204 138.898 17.4941C139.764 17.8678 140.443 18.4329 140.936 19.1895C141.437 19.9368 141.688 20.8757 141.688 22.0059V28.582C141.688 29.2565 141.733 29.8626 141.824 30.4004C141.924 30.929 142.066 31.3893 142.248 31.7812V32H138.871C138.716 31.6445 138.593 31.1934 138.502 30.6465C138.42 30.0905 138.379 29.5527 138.379 29.0332ZM138.857 23.0039L138.885 25.041H136.52C135.909 25.041 135.371 25.1003 134.906 25.2188C134.441 25.3281 134.054 25.4922 133.744 25.7109C133.434 25.9297 133.202 26.194 133.047 26.5039C132.892 26.8138 132.814 27.1647 132.814 27.5566C132.814 27.9486 132.906 28.3086 133.088 28.6367C133.27 28.9557 133.535 29.2064 133.881 29.3887C134.236 29.571 134.665 29.6621 135.166 29.6621C135.84 29.6621 136.428 29.5254 136.93 29.252C137.44 28.9694 137.841 28.6276 138.133 28.2266C138.424 27.8164 138.579 27.429 138.598 27.0645L139.664 28.5273C139.555 28.901 139.368 29.3021 139.104 29.7305C138.839 30.1589 138.493 30.569 138.064 30.9609C137.645 31.3438 137.139 31.6582 136.547 31.9043C135.964 32.1504 135.289 32.2734 134.523 32.2734C133.557 32.2734 132.696 32.082 131.939 31.6992C131.183 31.3073 130.59 30.7832 130.162 30.127C129.734 29.4616 129.52 28.7096 129.52 27.8711C129.52 27.0872 129.665 26.3945 129.957 25.793C130.258 25.1823 130.695 24.6719 131.27 24.2617C131.853 23.8516 132.564 23.5417 133.402 23.332C134.241 23.1133 135.198 23.0039 136.273 23.0039H138.857ZM148.4 20.3652V32H145.105V17.207H148.209L148.4 20.3652ZM147.812 24.0566L146.746 24.043C146.755 22.9948 146.901 22.0332 147.184 21.1582C147.475 20.2832 147.876 19.5312 148.387 18.9023C148.906 18.2734 149.526 17.7904 150.246 17.4531C150.966 17.1068 151.768 16.9336 152.652 16.9336C153.363 16.9336 154.006 17.0339 154.58 17.2344C155.163 17.4258 155.66 17.7402 156.07 18.1777C156.49 18.6152 156.809 19.1849 157.027 19.8867C157.246 20.5794 157.355 21.4316 157.355 22.4434V32H154.047V22.4297C154.047 21.7188 153.942 21.1582 153.732 20.748C153.532 20.3288 153.236 20.0326 152.844 19.8594C152.461 19.6771 151.982 19.5859 151.408 19.5859C150.843 19.5859 150.337 19.7044 149.891 19.9414C149.444 20.1784 149.066 20.502 148.756 20.9121C148.455 21.3223 148.223 21.7962 148.059 22.334C147.895 22.8717 147.812 23.446 147.812 24.0566ZM163.986 20.3652V32H160.691V17.207H163.795L163.986 20.3652ZM163.398 24.0566L162.332 24.043C162.341 22.9948 162.487 22.0332 162.77 21.1582C163.061 20.2832 163.462 19.5312 163.973 18.9023C164.492 18.2734 165.112 17.7904 165.832 17.4531C166.552 17.1068 167.354 16.9336 168.238 16.9336C168.949 16.9336 169.592 17.0339 170.166 17.2344C170.749 17.4258 171.246 17.7402 171.656 18.1777C172.076 18.6152 172.395 19.1849 172.613 19.8867C172.832 20.5794 172.941 21.4316 172.941 22.4434V32H169.633V22.4297C169.633 21.7188 169.528 21.1582 169.318 20.748C169.118 20.3288 168.822 20.0326 168.43 19.8594C168.047 19.6771 167.568 19.5859 166.994 19.5859C166.429 19.5859 165.923 19.7044 165.477 19.9414C165.03 20.1784 164.652 20.502 164.342 20.9121C164.041 21.3223 163.809 21.7962 163.645 22.334C163.48 22.8717 163.398 23.446 163.398 24.0566ZM182.826 32.2734C181.732 32.2734 180.743 32.0957 179.859 31.7402C178.984 31.3757 178.237 30.8698 177.617 30.2227C177.007 29.5755 176.537 28.8145 176.209 27.9395C175.881 27.0645 175.717 26.1211 175.717 25.1094V24.5625C175.717 23.4049 175.885 22.3568 176.223 21.418C176.56 20.4792 177.029 19.6771 177.631 19.0117C178.232 18.3372 178.943 17.8223 179.764 17.4668C180.584 17.1113 181.473 16.9336 182.43 16.9336C183.487 16.9336 184.412 17.1113 185.205 17.4668C185.998 17.8223 186.654 18.3236 187.174 18.9707C187.702 19.6087 188.094 20.3698 188.35 21.2539C188.614 22.138 188.746 23.1133 188.746 24.1797V25.5879H177.316V23.2227H185.492V22.9629C185.474 22.3704 185.355 21.8145 185.137 21.2949C184.927 20.7754 184.604 20.3561 184.166 20.0371C183.729 19.7181 183.145 19.5586 182.416 19.5586C181.869 19.5586 181.382 19.6771 180.953 19.9141C180.534 20.1419 180.183 20.4746 179.9 20.9121C179.618 21.3496 179.399 21.8783 179.244 22.498C179.098 23.1087 179.025 23.7969 179.025 24.5625V25.1094C179.025 25.7565 179.112 26.3581 179.285 26.9141C179.467 27.4609 179.732 27.9395 180.078 28.3496C180.424 28.7598 180.844 29.0833 181.336 29.3203C181.828 29.5482 182.389 29.6621 183.018 29.6621C183.811 29.6621 184.517 29.5026 185.137 29.1836C185.757 28.8646 186.294 28.4134 186.75 27.8301L188.486 29.5117C188.167 29.9766 187.753 30.4232 187.242 30.8516C186.732 31.2708 186.107 31.6126 185.369 31.877C184.64 32.1413 183.792 32.2734 182.826 32.2734ZM194.625 20.0234V32H191.33V17.207H194.475L194.625 20.0234ZM199.15 17.1113L199.123 20.1738C198.923 20.1374 198.704 20.11 198.467 20.0918C198.239 20.0736 198.011 20.0645 197.783 20.0645C197.218 20.0645 196.721 20.1465 196.293 20.3105C195.865 20.4655 195.505 20.6934 195.213 20.9941C194.93 21.2858 194.712 21.6413 194.557 22.0605C194.402 22.4798 194.311 22.9492 194.283 23.4688L193.531 23.5234C193.531 22.5938 193.622 21.7324 193.805 20.9395C193.987 20.1465 194.26 19.4492 194.625 18.8477C194.999 18.2461 195.464 17.7767 196.02 17.4395C196.585 17.1022 197.236 16.9336 197.975 16.9336C198.175 16.9336 198.389 16.9518 198.617 16.9883C198.854 17.0247 199.032 17.0658 199.15 17.1113Z" fill="white"/>
</svg>
